<?xml version="1.0" encoding="utf-8"?>
<!-- Generator: Adobe Illustrator 24.0.2, SVG Export Plug-In . SVG Version: 6.00 Build 0)  -->
<svg version="1.1" id="Layer_1" xmlns="http://www.w3.org/2000/svg" xmlns:xlink="http://www.w3.org/1999/xlink" x="0px" y="0px"
	 viewBox="0 0 636.1 140.4" style="enable-background:new 0 0 636.1 140.4;" xml:space="preserve">
<style type="text/css">
	.st0{fill:#468E66;}
	.st1{fill:#62B882;}
</style>
<g>
	<path class="st0" d="M40,106.8c0.2-2.9,0.7-5.8,1.6-8.5c3.2-10,9.5-17.6,18.7-22.6c5.5-3.1,11.5-4.5,17.8-4.7
		c0.6,0,0.7,0.2,0.7,0.7c-0.2,9.1-3.2,17.1-8.9,24.1c-4.9,6-11.1,10.1-18.5,12.4c-4.7,1.5-9.6,2-14.5,1.6c-6.9-0.5-13.3-2.7-19-6.7
		C11,98.3,6,91.9,3.2,83.9C1.8,80,1.1,76,1,71.8c0-0.7,0.2-0.9,0.9-0.9c11.1,0.4,20.4,4.6,27.9,12.7c5.8,6.3,9.1,13.7,10,22.2
		c0,0.2,0,0.4,0.1,0.6c0.1,0.8,0.2,1.4,0.3,2.1C40,108,40,107.4,40,106.8z"/>
	<path class="st1" d="M39.9,91.8c0.5-6.6,2.2-13,5-19.2c2-4.5,4.5-8.7,7.5-12.5c3.5-4.5,7.6-8.4,12.6-11.3c1.4-0.8,2.9-1.5,4.4-2.1
		c0.5-0.2,0.8-0.1,1.1,0.3c2.9,3.8,5.1,8,6.5,12.6c0.2,0.6,0.1,0.8-0.5,0.8c-4.7,0.3-9,1.5-13.2,3.6c-7.1,3.6-12.6,8.9-16.8,15.7
		c-3.4,5.4-5.5,11.3-6.4,17.6c-0.1,0.9-0.2,1.8-0.3,2.9c-0.3-1.8-0.4-3.4-0.7-5c-1.4-7.8-4.7-14.7-9.7-20.8
		C26,70.2,21.9,66.8,17,64.2c-4.2-2.2-8.7-3.6-13.5-3.9c-1-0.1-1.1-0.1-0.8-1.1c1.4-4.4,3.5-8.5,6.3-12.2c0.5-0.6,0.9-0.6,1.6-0.3
		c4.8,2,8.9,4.9,12.5,8.6c6.1,6.2,10.4,13.4,13.4,21.5c1.6,4.4,2.6,9,3.2,13.7C39.8,91.1,39.9,91.5,39.9,91.8z"/>
	<path class="st1" d="M39.9,83.9c-0.4-4.7-1.2-9.3-2.5-13.8C36.2,66,34.8,62,33,58c-2.4-5.3-5.3-10.3-8.8-14.9
		c-1.3-1.7-2.7-3.3-4.2-4.8c-0.5-0.5-0.5-0.7,0.1-1.1c7-4.1,14.5-5.8,22.6-5.3c6,0.4,11.6,2.2,16.8,5.2c0.6,0.4,0.7,0.6,0.2,1.1
		c-5.6,5.8-9.8,12.5-13,19.9c-2.2,4.9-4,10.1-5.2,15.3C40.7,77,40.2,80.5,39.9,83.9z"/>
</g>
<path class="st0" d="M181.5,46.8l-11.3,10.6c-2.4-4.1-5.3-7.1-8.8-9.2c-3.5-2-7.1-3-10.9-3c-6.2,0-11.5,2.3-16.1,7
	s-6.8,10.2-6.8,16.6c0,6.8,2.3,12.5,6.8,17.2s10,7.1,16.4,7.1c3.5,0,6.8-0.9,10.1-2.6c3.2-1.8,5.8-5.1,7.8-9.9H150V65.1h36.4v10.2
	c0,5.2-1.8,10.9-5.4,16.9c-3.6,6-8.4,10.4-14.2,13.2c-5.9,2.8-11.8,4.2-17.8,4.2c-10.9,0-20.1-3.9-27.6-11.8
	c-7.5-7.9-11.2-17.6-11.2-29.3c0-11,3.9-20.4,11.6-28.2s17-11.7,27.9-11.7C163.4,28.6,174,34.6,181.5,46.8z"/>
<path class="st0" d="M213,56.9v7.6h0.2c1.5-2.6,3.3-4.6,5.3-6.1c2-1.5,3.9-2.3,5.6-2.3c1,0,2,0.1,2.8,0.2v16.8
	c-1.3-0.2-2.5-0.4-3.8-0.4c-3.2,0-5.6,1.1-7.4,3.3c-1.7,2.2-2.6,5.3-2.6,9.3v23h-15.6V56.9H213z"/>
<path class="st0" d="M287.5,86.4h-36.8c0.2,3.3,1.3,6,3.3,8.1s4.3,3.1,6.9,3.1c4.7,0,8.4-2.1,11.1-6.4l14.1,4.7
	c-5.2,9.2-13.4,13.8-24.5,13.8c-8.1,0-14.6-2.5-19.4-7.4S235,90.7,235,82.4c0-7.5,2.5-13.8,7.6-18.9s11.3-7.6,18.7-7.6
	c7.5,0,13.7,2.7,18.7,8s7.5,12,7.5,20V86.4z M250.8,76h20.8c-1.4-6.5-4.7-9.7-9.9-9.7c-3,0-5.4,0.8-7.4,2.5
	C252.3,70.6,251.2,73,250.8,76z"/>
<path class="st0" d="M346.4,86.4h-36.8c0.2,3.3,1.3,6,3.3,8.1s4.3,3.1,6.9,3.1c4.7,0,8.4-2.1,11.1-6.4l14.1,4.7
	c-5.2,9.2-13.4,13.8-24.5,13.8c-8.1,0-14.6-2.5-19.4-7.4c-4.8-4.9-7.2-11.6-7.2-19.9c0-7.5,2.5-13.8,7.6-18.9s11.3-7.6,18.7-7.6
	c7.5,0,13.7,2.7,18.7,8c5,5.3,7.5,12,7.5,20V86.4z M309.7,76h20.8c-1.4-6.5-4.7-9.7-9.9-9.7c-3,0-5.4,0.8-7.4,2.5
	C311.3,70.6,310.1,73,309.7,76z"/>
<path class="st0" d="M373.8,56.9V63c5.2-4.9,10.8-7.4,16.5-7.4c4.9,0,9,2,12.2,6.1c3.2,4,4.8,9.2,4.8,15.5v31.4h-15.6V79.6
	c0-3-0.8-5.5-2.4-7.5c-1.6-2-3.6-3.1-5.9-3.1c-2.8,0-5.1,1.3-6.9,3.9s-2.7,5.9-2.7,10v25.6h-15.4V56.9H373.8z"/>
<path d="M417.9,29.6H471v16.8h-18.1v62.1h-17V46.4h-18V29.6z"/>
<path d="M524.7,86.4h-36.8c0.2,3.3,1.3,6,3.3,8.1s4.3,3.1,6.9,3.1c4.7,0,8.4-2.1,11.1-6.4l14.1,4.7c-5.2,9.2-13.4,13.8-24.5,13.8
	c-8.1,0-14.6-2.5-19.4-7.4c-4.8-4.9-7.2-11.6-7.2-19.9c0-7.5,2.5-13.8,7.6-18.9s11.3-7.6,18.7-7.6c7.5,0,13.7,2.7,18.7,8
	c5,5.3,7.5,12,7.5,20V86.4z M488,76h20.8c-1.4-6.5-4.7-9.7-9.9-9.7c-3,0-5.4,0.8-7.4,2.5C489.6,70.6,488.4,73,488,76z"/>
<path d="M573.1,90.6V106c-5.3,2.4-9.7,3.6-13.2,3.6c-7.8,0-14.3-2.6-19.5-7.7s-7.8-11.5-7.8-19.2c0-7.7,2.4-14.1,7.2-19.2
	s10.9-7.6,18.4-7.6c5.2,0,10.2,1.2,15,3.6V74c-4.5-2.2-8.6-3.2-12.3-3.2c-3.4,0-6.2,1.1-8.3,3.2c-2.1,2.1-3.2,4.9-3.2,8.3
	c0,3.4,1,6.2,3.1,8.3c2.1,2.1,4.8,3.2,8.2,3.2C563.9,93.6,568,92.6,573.1,90.6z"/>
<path d="M586.5,28.3h15.6v34.6c2.8-2.4,5.4-4.1,7.8-5.2s5.2-1.6,8.4-1.6c5.4,0,9.6,2,12.7,5.9s4.6,9.3,4.6,16.3v30.4h-15.5V80.8
	c0-3.3-0.9-6.1-2.6-8.4c-1.7-2.3-3.8-3.4-6.3-3.4c-3.2,0-5.5,1.3-6.9,3.9s-2.2,6.7-2.2,12.2v23.4h-15.6V28.3z"/>
<g>
</g>
</svg>
