<?xml version="1.0" encoding="utf-8"?>
<!-- Generator: Adobe Illustrator 24.0.2, SVG Export Plug-In . SVG Version: 6.00 Build 0)  -->
<svg version="1.1" id="Layer_1" xmlns="http://www.w3.org/2000/svg" xmlns:xlink="http://www.w3.org/1999/xlink" x="0px" y="0px"
	 viewBox="0 0 102.5 102.5" style="enable-background:new 0 0 102.5 102.5;" xml:space="preserve">
<style type="text/css">
	.st0{fill:#468E66;}
	.st1{fill:#62B882;}
</style>
<g>
	<path class="st0" d="M51.5,98.5c0.3-3.8,1-7.6,2.2-11.2c4.3-13.2,12.5-23.1,24.6-29.8c7.3-4,15.1-5.9,23.4-6.2
		c0.7,0,0.9,0.2,0.9,0.9c-0.3,11.9-4.2,22.5-11.8,31.8c-6.5,7.9-14.6,13.3-24.3,16.3c-6.2,1.9-12.6,2.6-19.1,2.1
		c-9.1-0.7-17.5-3.6-25-8.8C13.2,87.2,6.8,78.8,3,68.3c-1.8-5.1-2.7-10.4-2.9-15.9c0-0.9,0.2-1.2,1.2-1.2
		c14.5,0.5,26.8,6.1,36.7,16.8c7.6,8.3,11.9,18.1,13.1,29.2c0,0.2,0.1,0.6,0.1,0.8c0.1,1,0.2,1.8,0.3,2.8
		C51.5,100,51.5,99.3,51.5,98.5z"/>
	<path class="st1" d="M51.3,78.7c0.7-8.6,2.9-17.1,6.6-25.3c2.6-5.9,5.9-11.4,9.8-16.5c4.6-6,10-11.1,16.6-14.9
		c1.9-1.1,3.8-2,5.8-2.8c0.6-0.2,1-0.2,1.5,0.4c3.8,5,6.7,10.5,8.6,16.5c0.2,0.7,0.1,1-0.7,1.1c-6.1,0.3-11.9,2-17.4,4.8
		c-9.3,4.7-16.6,11.8-22.1,20.6c-4.4,7.1-7.2,14.9-8.4,23.2c-0.2,1.2-0.3,2.4-0.4,3.9c-0.3-2.3-0.6-4.4-0.9-6.5
		C48.5,73,44.2,63.9,37.6,55.9c-4.6-5.6-10-10.1-16.4-13.4c-5.6-2.9-11.5-4.8-17.8-5.1c-1.3-0.1-1.4-0.2-1-1.4
		c1.8-5.8,4.6-11.1,8.3-16c0.6-0.8,1.2-0.8,2.1-0.4c6.3,2.6,11.7,6.5,16.5,11.3c8,8.1,13.7,17.7,17.6,28.3c2.1,5.8,3.5,11.8,4.2,18
		C51.2,77.8,51.3,78.4,51.3,78.7z"/>
	<path class="st1" d="M51.3,68.4c-0.6-6.2-1.6-12.2-3.3-18.2c-1.5-5.4-3.5-10.7-5.8-15.9c-3.1-6.9-6.9-13.5-11.5-19.6
		c-1.7-2.2-3.5-4.3-5.5-6.3c-0.6-0.6-0.7-0.9,0.1-1.4c9.2-5.4,19.1-7.7,29.7-6.9C63,0.7,70.3,3,77.2,7c0.8,0.5,0.9,0.7,0.2,1.4
		C70,16.1,64.6,25,60.2,34.6c-2.9,6.5-5.2,13.2-6.8,20.2C52.4,59.3,51.7,63.8,51.3,68.4z"/>
</g>
</svg>
